<?xml version="1.0" encoding="iso-8859-1"?>
<!-- Generator: Adobe Illustrator 19.0.0, SVG Export Plug-In . SVG Version: 6.00 Build 0)  -->
<svg version="1.1" id="Layer_1" xmlns="http://www.w3.org/2000/svg" xmlns:xlink="http://www.w3.org/1999/xlink" x="0px" y="0px"
	 viewBox="0 0 512 512" style="enable-background:new 0 0 512 512;" xml:space="preserve">
<path style="fill:#B8CAD9;" d="M289.391,0c-30.684,0-55.652,24.968-55.652,55.652s24.968,55.652,55.652,55.652
	s55.652-24.968,55.652-55.652S320.076,0,289.391,0z M289.391,77.913c-12.271,0-22.261-9.984-22.261-22.261
	s9.99-22.261,22.261-22.261s22.261,9.984,22.261,22.261S301.663,77.913,289.391,77.913z"/>
<path style="fill:#A2BECC;" d="M311.652,55.652c0,12.277-9.99,22.261-22.261,22.261v33.391c30.684,0,55.652-24.968,55.652-55.652
	S320.076,0,289.391,0v33.391C301.663,33.391,311.652,43.375,311.652,55.652z"/>
<path style="fill:#B8CAD9;" d="M289.391,495.304c-110.467,0-200.348-89.875-200.348-200.348s89.88-200.348,200.348-200.348
	s200.348,89.875,200.348,200.348S399.859,495.304,289.391,495.304z"/>
<path style="fill:#A2BECC;" d="M289.391,94.609v400.696c110.467,0,200.348-89.875,200.348-200.348S399.859,94.609,289.391,94.609z"
	/>
<path style="fill:#5CCBE6;" d="M405.826,294.957c-8.968,0-16.326-7.076-16.685-16.032c-0.892-22.468-3.544-43.962-7.891-63.885
	c-1.076-4.94,0.141-10.098,3.316-14.032c3.163-3.935,7.946-6.223,13-6.223h55.207c6.261,0,12,3.505,14.859,9.076
	c11.76,22.919,18.892,47.446,21.196,72.897c0.424,4.668-1.141,9.304-4.304,12.767c-3.163,3.462-7.641,5.435-12.326,5.435h-66.372
	V294.957z"/>
<path style="fill:#FFC84D;" d="M215.609,395.13c-7.684,0-14.381-5.245-16.217-12.712c-5.413-22.022-8.685-45.592-9.739-70.054
	c-0.196-4.543,1.478-8.973,4.63-12.261s7.5-5.147,12.054-5.147h66.359c9.217,0,16.696,7.473,16.696,16.696v66.783
	c0,9.223-7.479,16.696-16.696,16.696L215.609,395.13L215.609,395.13z"/>
<path style="fill:#7ADEF2;" d="M147.837,194.783c-6.468,0-12.348-3.733-15.108-9.587c-2.75-5.848-1.88-12.767,2.239-17.75
	c19.435-23.49,44.533-42.576,72.587-55.19c2.206-0.989,4.532-1.467,6.837-1.467c4.772,0,9.435,2.038,12.684,5.826
	c4.815,5.62,5.358,13.745,1.337,19.957c-8.642,13.31-16.066,29.082-22.087,46.869c-2.294,6.777-8.652,11.342-15.815,11.342H147.837z
	"/>
<path style="fill:#F27861;" d="M364.391,479.125c-4.772,0-9.435-2.038-12.684-5.826c-4.815-5.62-5.358-13.745-1.337-19.957
	c8.642-13.31,16.066-29.082,22.087-46.869c2.294-6.777,8.652-11.342,15.815-11.342h42.674c6.468,0,12.348,3.733,15.108,9.587
	c2.75,5.848,1.88,12.767-2.239,17.75c-19.435,23.49-44.533,42.576-72.587,55.19C369.022,478.647,366.695,479.125,364.391,479.125z"
	/>
<path style="fill:#E6EDF2;" d="M289.391,77.913c-119.674,0-217.043,97.365-217.043,217.043S169.717,512,289.391,512
	s217.043-97.365,217.043-217.043S409.066,77.913,289.391,77.913z M405.82,278.261c-0.927-23.59-3.73-46.047-8.261-66.783h55.209
	c10.457,20.38,17.263,42.9,19.429,66.783H405.82z M472.199,311.652c-2.166,23.883-8.973,46.403-19.429,66.783H397.56
	c4.531-20.736,7.334-43.193,8.261-66.783H472.199z M430.946,178.087h-42.672c-6.495-19.172-14.568-36.225-23.894-50.603
	C390.272,139.125,413.065,156.468,430.946,178.087z M352.702,178.087h-46.615v-62.325
	C323.403,124.577,340.244,146.487,352.702,178.087z M306.087,411.826h46.615c-12.458,31.6-29.3,53.51-46.615,62.325V411.826z
	 M272.696,115.762v62.325H226.08C238.539,146.487,255.38,124.577,272.696,115.762z M272.696,211.478v66.783h-66.36
	c1.042-24.363,4.352-46.755,9.275-66.783H272.696z M272.696,311.652v66.783H215.61c-4.923-20.028-8.232-42.419-9.275-66.783H272.696
	z M272.696,411.826v62.325c-17.316-8.816-34.157-30.726-46.615-62.325H272.696z M306.087,378.435v-66.783h66.36
	c-1.042,24.363-4.352,46.755-9.275,66.783H306.087z M306.087,278.261v-66.783h57.086c4.923,20.028,8.232,42.419,9.275,66.783
	H306.087z M214.402,127.484c-9.326,14.379-17.399,31.431-23.894,50.603h-42.671C165.718,156.468,188.511,139.125,214.402,127.484z
	 M106.584,311.652h66.377c0.927,23.59,3.73,46.047,8.261,66.783h-55.209C115.557,358.055,108.75,335.535,106.584,311.652z
	 M172.962,278.261h-66.379c2.166-23.883,8.973-46.403,19.429-66.783h55.209C176.691,232.214,173.889,254.671,172.962,278.261z
	 M147.837,411.826h42.671c6.495,19.172,14.568,36.225,23.894,50.603C188.511,450.788,165.718,433.445,147.837,411.826z
	 M364.38,462.429c9.326-14.379,17.399-31.431,23.894-50.603h42.671C413.065,433.445,390.272,450.788,364.38,462.429z"/>
<path style="fill:#CFDCE6;" d="M506.435,294.957c0-119.679-97.369-217.043-217.043-217.043V512
	C409.066,512,506.435,414.635,506.435,294.957z M364.38,462.429c9.326-14.379,17.399-31.431,23.894-50.603h42.671
	C413.065,433.445,390.272,450.788,364.38,462.429z M452.769,378.435H397.56c4.531-20.736,7.334-43.193,8.261-66.783h66.378
	C470.033,335.535,463.225,358.055,452.769,378.435z M452.769,211.478c10.457,20.38,17.263,42.9,19.429,66.783h-66.377
	c-0.927-23.59-3.73-46.047-8.261-66.783H452.769z M430.946,178.087h-42.672c-6.495-19.172-14.568-36.225-23.894-50.603
	C390.272,139.125,413.065,156.468,430.946,178.087z M306.087,115.762c17.316,8.816,34.157,30.726,46.615,62.325h-46.615V115.762z
	 M306.087,211.478h57.086c4.923,20.028,8.232,42.419,9.275,66.783h-66.361V211.478z M306.087,311.652h66.36
	c-1.042,24.363-4.352,46.755-9.275,66.783h-57.085V311.652z M306.087,411.826h46.615c-12.458,31.6-29.3,53.51-46.615,62.325V411.826
	z"/>
<path style="fill:#FFC033;" d="M89.043,77.913H72.348V61.217c0-9.223-7.479-16.696-16.696-16.696s-16.696,7.473-16.696,16.696
	v16.696H22.261c-9.217,0-16.696,7.473-16.696,16.696s7.479,16.696,16.696,16.696h16.696V128c0,9.223,7.479,16.696,16.696,16.696
	S72.348,137.223,72.348,128v-16.696h16.696c9.217,0,16.696-7.473,16.696-16.696S98.261,77.913,89.043,77.913z"/>
<path style="fill:#F9A926;" d="M72.348,128v-16.696h16.696c9.217,0,16.696-7.473,16.696-16.696s-7.479-16.696-16.696-16.696H72.348
	V61.217c0-9.223-7.479-16.696-16.696-16.696v100.174C64.869,144.696,72.348,137.223,72.348,128z"/>
<g>
</g>
<g>
</g>
<g>
</g>
<g>
</g>
<g>
</g>
<g>
</g>
<g>
</g>
<g>
</g>
<g>
</g>
<g>
</g>
<g>
</g>
<g>
</g>
<g>
</g>
<g>
</g>
<g>
</g>
</svg>
