<?xml version="1.0" standalone="no"?>
<!DOCTYPE svg PUBLIC "-//W3C//DTD SVG 20010904//EN"
 "http://www.w3.org/TR/2001/REC-SVG-20010904/DTD/svg10.dtd">
<svg version="1.0" xmlns="http://www.w3.org/2000/svg"
 width="200.000000pt" height="200.000000pt" viewBox="0 0 200.000000 200.000000"
 preserveAspectRatio="xMidYMid meet">

<g transform="translate(0.000000,200.000000) scale(0.100000,-0.100000)"
fill="#000000" stroke="none">
<path d="M960 1955 c-34 -79 -220 -544 -220 -550 0 -10 76 -5 130 9 30 8 82
31 115 51 66 40 141 65 192 65 18 0 33 2 33 4 0 2 -42 106 -93 232 -79 193
-97 230 -115 232 -18 3 -26 -5 -42 -43z"/>
<path d="M1143 1460 c-42 -9 -76 -24 -173 -78 -55 -31 -147 -52 -225 -52 -38
0 -42 -3 -54 -37 -8 -21 -16 -43 -18 -49 -6 -16 74 -34 150 -34 83 0 143 19
220 69 64 41 155 81 185 81 40 1 46 15 27 64 -19 50 -26 53 -112 36z"/>
<path d="M1191 1280 c-30 -11 -81 -37 -115 -59 -34 -22 -81 -47 -105 -56 -85
-30 -202 -30 -307 1 -19 5 -25 -4 -54 -76 l-33 -81 38 -39 c102 -105 262 -116
397 -27 35 22 86 49 113 59 61 21 193 24 258 4 l46 -14 -13 32 c-7 17 -34 86
-61 154 -47 119 -49 122 -79 122 -17 -1 -55 -9 -85 -20z"/>
<path d="M1168 947 c-25 -8 -76 -33 -112 -56 -81 -53 -139 -71 -232 -71 -87 0
-163 25 -230 77 -25 19 -47 33 -48 31 -1 -2 -15 -32 -30 -67 l-27 -64 54 -52
c74 -72 145 -99 257 -99 94 1 123 11 239 83 90 57 189 78 294 63 46 -7 104
-24 140 -41 34 -16 62 -29 63 -28 1 1 -15 42 -35 91 l-37 88 -56 24 c-70 30
-176 39 -240 21z"/>
<path d="M1155 712 c-28 -10 -80 -36 -116 -59 -89 -56 -145 -73 -238 -73 -109
0 -194 28 -276 90 -56 43 -67 47 -72 32 -4 -9 -45 -109 -91 -222 -46 -113 -86
-219 -89 -236 -20 -128 237 -225 637 -241 467 -18 845 94 817 243 -3 16 -35
102 -72 191 l-67 162 -75 50 c-41 28 -97 57 -125 66 -68 20 -171 19 -233 -3z
m63 -322 c191 -21 344 -62 413 -111 59 -42 23 -93 -95 -138 -214 -80 -647 -96
-945 -35 -146 30 -244 79 -249 126 -13 109 488 199 876 158z"/>
</g>
</svg>
